<svg width="0" height="0" class="hidden">
  <symbol xmlns="http://www.w3.org/2000/svg" viewBox="0 0 48 48" id="bookOpen">
    <path
      d="M21 40.86H6.09c-1.08 0-1.98-.9-1.98-1.98V20.22c0-1.17.6-1.83 1.74-1.83h.9v-3.36H4.89c-2.49 0-4.5 2.01-4.5 4.5v20.25c0 2.49 2.01 4.5 4.5 4.5H21v-3.42ZM43.14 15h-1.86v3.36h.99c1.08 0 1.62.63 1.62 1.62v18.93c0 1.08-.87 1.98-1.98 1.98H27v3.36h16.14c2.49 0 4.5-2.01 4.5-4.5V19.5c0-2.49-2.01-4.5-4.5-4.5Z"
      fill="currentColor"></path>
    <path
      d="M39.39 4.5c-5.19.69-11.4 2.73-15.36 5.16-3.99-2.43-10.2-4.47-15.36-5.16v30.75c4.26.51 8.67 1.5 13.14 3.24l2.25.99 2.25-.99c4.47-1.74 8.88-2.76 13.14-3.24V4.5h-.06ZM13.14 31.89V9.69c3.21.57 6.93 2.01 8.64 3.39v21.24c-2.49-1.02-5.97-1.95-8.64-2.43Zm21.75 0c-2.64.48-6.15 1.41-8.64 2.43V13.08c1.68-1.41 5.43-2.82 8.64-3.39v22.2Z"
      fill="currentColor"></path>
  </symbol>
  <symbol xmlns="http://www.w3.org/2000/svg" viewBox="0 0 23 21" id="calendarMonth">
    <path
      d="M4.263 20.288h14.78c1.168 0 2.046-.297 2.633-.892.594-.587.891-1.453.891-2.6V3.725c0-1.153-.297-2.023-.891-2.61-.587-.588-1.465-.882-2.632-.882H4.263c-1.16 0-2.038.294-2.632.881-.595.588-.892 1.458-.892 2.61v13.074c0 1.146.297 2.012.892 2.6.594.594 1.472.891 2.632.891Zm-.022-2.116c-.451 0-.795-.115-1.031-.344-.236-.236-.355-.587-.355-1.053V6.85c0-.466.119-.817.355-1.053s.58-.355 1.031-.355h14.814c.45 0 .795.119 1.03.355.244.236.366.587.366 1.053v9.925c0 .466-.122.817-.365 1.053-.236.23-.58.344-1.031.344H4.24Zm5.35-8.991h.634c.186 0 .318-.036.397-.108.079-.079.118-.211.118-.397v-.634c0-.193-.04-.322-.118-.387-.079-.071-.211-.107-.397-.107H9.59c-.194 0-.33.036-.408.107-.072.065-.108.194-.108.387v.634c0 .186.036.318.108.397.078.072.214.108.408.108Zm3.502 0h.634c.2 0 .336-.036.408-.108.071-.079.107-.211.107-.397v-.634c0-.193-.036-.322-.107-.387-.072-.071-.208-.107-.408-.107h-.634c-.186 0-.319.036-.398.107-.071.065-.107.194-.107.387v.634c0 .186.036.318.107.397.08.072.212.108.398.108Zm3.523 0h.623c.2 0 .337-.036.409-.108.071-.079.107-.211.107-.397v-.634c0-.193-.036-.322-.107-.387-.072-.071-.208-.107-.409-.107h-.623c-.193 0-.33.036-.408.107-.072.065-.107.194-.107.387v.634c0 .186.035.318.107.397.079.072.215.108.408.108ZM6.078 12.629h.634c.186 0 .315-.036.387-.107.078-.072.118-.201.118-.387V11.5c0-.193-.04-.326-.118-.397-.072-.072-.2-.108-.387-.108h-.634c-.193 0-.33.036-.408.107-.072.072-.107.205-.107.398v.634c0 .186.035.315.107.386.079.072.215.108.408.108Zm3.513 0h.634c.186 0 .318-.036.397-.107.079-.072.118-.201.118-.387V11.5c0-.193-.04-.326-.118-.397-.079-.072-.211-.108-.397-.108H9.59c-.194 0-.33.036-.408.107-.072.072-.108.205-.108.398v.634c0 .186.036.315.108.386.078.072.214.108.408.108Zm3.502 0h.634c.2 0 .336-.036.408-.107.071-.072.107-.201.107-.387V11.5c0-.193-.036-.326-.107-.397-.072-.072-.208-.108-.408-.108h-.634c-.186 0-.319.036-.398.107-.071.072-.107.205-.107.398v.634c0 .186.036.315.107.386.08.072.212.108.398.108Zm3.523 0h.623c.2 0 .337-.036.409-.107.071-.072.107-.201.107-.387V11.5c0-.193-.036-.326-.107-.397-.072-.072-.208-.108-.409-.108h-.623c-.193 0-.33.036-.408.107-.072.072-.107.205-.107.398v.634c0 .186.035.315.107.386.079.072.215.108.408.108ZM6.078 16.088h.634c.186 0 .315-.032.387-.097.078-.071.118-.207.118-.408v-.623c0-.193-.04-.326-.118-.398-.072-.071-.2-.107-.387-.107h-.634c-.193 0-.33.036-.408.107-.072.072-.107.205-.107.398v.623c0 .2.035.337.107.408.079.065.215.097.408.097Zm3.513 0h.634c.186 0 .318-.032.397-.097.079-.071.118-.207.118-.408v-.623c0-.193-.04-.326-.118-.398-.079-.071-.211-.107-.397-.107H9.59c-.194 0-.33.036-.408.107-.072.072-.108.205-.108.398v.623c0 .2.036.337.108.408.078.065.214.097.408.097Zm3.502 0h.634c.2 0 .336-.032.408-.097.071-.071.107-.207.107-.408v-.623c0-.193-.036-.326-.107-.398-.072-.071-.208-.107-.408-.107h-.634c-.186 0-.319.036-.398.107-.071.072-.107.205-.107.398v.623c0 .2.036.337.107.408.08.065.212.097.398.097Z"
      fill="currentColor"></path>
  </symbol>
  <symbol xmlns="http://www.w3.org/2000/svg" viewBox="0 0 27 30" id="checkeredFlag">
    <path
      d="M2.00492 29.512C2.95444 29.5145 3.74826 28.7397 3.75148 27.7614L3.77667 20.1222C4.20869 19.9939 5.21679 19.68 6.62668 19.6838C11.7051 19.6974 15.4801 22.3546 20.5585 22.3682C22.7165 22.3739 24.0124 22.0465 25.1507 21.5172C26.2458 21.0022 26.7956 20.0398 26.8002 18.6731L26.846 4.76127C26.85 3.5528 26.0183 2.73054 24.8098 2.72731C23.8171 2.72466 22.5783 3.19612 20.521 3.19062C15.6008 3.17749 11.6676 0.51984 6.58919 0.506282C4.50314 0.500712 3.30805 0.799642 2.02571 1.38607C0.959488 1.87237 0.352786 2.61886 0.34847 3.92803L0.269935 27.7521C0.266758 28.716 1.05541 29.5094 2.00492 29.512ZM3.95915 12.7711L3.97291 8.59899C4.31927 8.26902 5.19818 7.86854 6.68 7.8725C7.09721 7.87361 7.98899 7.93354 8.65044 8.03601L8.663 4.22358C10.3599 4.4583 11.9551 4.96609 13.5936 5.45961L13.581 9.25766C15.1619 9.7798 16.9588 10.2162 18.5119 10.4074L18.5245 6.59493C19.1285 6.66848 19.7469 6.71329 20.3799 6.71498C21.4877 6.71794 22.4663 6.61984 23.2007 6.42039L23.1882 10.2184C22.569 10.3894 21.5471 10.5306 20.3674 10.5274C19.9358 10.5263 19.3028 10.5102 18.5119 10.4074L18.4981 14.5795C19.3322 14.6824 20.0659 14.6987 20.6126 14.7002C21.7204 14.7032 22.4976 14.5901 23.1744 14.4049L23.1622 18.0879C22.8447 18.4179 21.9226 18.8039 20.4264 18.7999C19.779 18.7982 19.1463 18.7246 18.4848 18.6221L18.4981 14.5795C16.7294 14.3302 15.2057 13.952 13.5673 13.4298L13.5543 17.3717C12.0021 16.9071 10.3922 16.4569 8.62331 16.2651L8.63668 12.2081C8.09023 12.1347 7.51505 12.0469 6.66625 12.0446C5.18443 12.0406 4.30552 12.4411 3.95915 12.7711ZM8.63668 12.2081C10.4342 12.4719 11.8282 12.9216 13.5673 13.4298L13.581 9.25766C11.9425 8.77852 10.4623 8.29981 8.65044 8.03601L8.63668 12.2081Z"
      fill="currentColor"></path>
  </symbol>
  <symbol xmlns="http://www.w3.org/2000/svg" viewBox="0 0 41 40" id="clipboard">
    <g clip-path="url(#clip0_2795_333972)">
      <path
        d="M15.8551 11.7015H24.6741C25.6092 11.7015 26.1559 11.1116 26.1559 10.1333V8.62274C26.1559 7.63006 25.6092 7.0546 24.6741 7.0546H23.6526C23.5231 5.29943 22.0701 3.88954 20.2718 3.88954C18.4734 3.88954 17.0204 5.29943 16.8909 7.0546H15.8551C14.9343 7.0546 14.3876 7.63006 14.3876 8.62274V10.1333C14.3876 11.1116 14.9343 11.7015 15.8551 11.7015ZM20.2718 8.47887C19.5524 8.47887 18.9626 7.87463 18.9626 7.18408C18.9626 6.46475 19.5524 5.88928 20.2718 5.88928C20.9911 5.88928 21.5666 6.46475 21.5666 7.18408C21.5666 7.87463 20.9911 8.47887 20.2718 8.47887ZM12.6468 39.5827H27.8967C31.0905 39.5827 32.9608 37.6981 32.9608 34.4611V12.7661C32.9608 9.55787 31.1193 7.63006 27.983 7.63006H27.6809C27.8103 7.91779 27.8679 8.26307 27.8679 8.62274V10.0182C27.8679 10.4498 27.8103 10.8383 27.6665 11.1836H27.8823C28.875 11.1836 29.4073 11.8166 29.4073 12.7949V34.4179C29.4073 35.4394 28.8174 36.0436 27.7528 36.0436H12.7763C11.7117 36.0436 11.1219 35.4394 11.1219 34.4179V12.7949C11.1219 11.8166 11.6686 11.1836 12.6612 11.1836H12.877C12.7332 10.8383 12.6756 10.4498 12.6756 10.0182V8.62274C12.6756 8.26307 12.7332 7.91779 12.8483 7.63006H12.5605C9.42425 7.63006 7.58276 9.55787 7.58276 12.7661V34.4611C7.58276 37.6981 9.45302 39.5827 12.6468 39.5827ZM14.7041 20.2184C15.5242 20.2184 16.1716 19.571 16.1716 18.7509C16.1716 17.9453 15.5242 17.2979 14.7041 17.2979C13.9129 17.2979 13.2511 17.9597 13.2511 18.7509C13.2511 19.5566 13.9129 20.2184 14.7041 20.2184ZM18.8331 19.9738H26.084C26.7601 19.9738 27.3068 19.4271 27.3068 18.7509C27.3068 18.0891 26.7601 17.5281 26.084 17.5281H18.8331C18.1569 17.5281 17.6102 18.0891 17.6102 18.7509C17.6102 19.4271 18.1569 19.9738 18.8331 19.9738ZM14.7041 25.2824C15.5242 25.2824 16.1716 24.635 16.1716 23.815C16.1716 23.0094 15.5098 22.3763 14.7041 22.3763C13.8985 22.3763 13.2511 23.0237 13.2511 23.815C13.2511 24.635 13.8985 25.2824 14.7041 25.2824ZM18.8331 25.0523H26.084C26.7745 25.0523 27.3068 24.5056 27.3068 23.815C27.3068 23.1532 26.7601 22.6065 26.084 22.6065H18.8331C18.1569 22.6065 17.6102 23.1532 17.6102 23.815C17.6102 24.5056 18.1425 25.0523 18.8331 25.0523ZM14.7041 30.6199C15.5242 30.6199 16.1716 29.9869 16.1716 29.1668C16.1716 28.3468 15.5242 27.7138 14.7041 27.7138C13.9129 27.7138 13.2511 28.3612 13.2511 29.1668C13.2511 29.9725 13.9129 30.6199 14.7041 30.6199ZM18.8331 30.3897H26.084C26.7601 30.3897 27.3068 29.843 27.3068 29.1668C27.3068 28.4907 26.7601 27.9584 26.084 27.9584H18.8331C18.1569 27.9584 17.6102 28.4907 17.6102 29.1668C17.6102 29.843 18.1569 30.3897 18.8331 30.3897ZM8.17261 64.6696H32.3565C35.6511 64.6696 37.435 62.8856 37.435 59.6199V51.3907C37.435 49.3478 37.176 48.4846 36.2409 47.3049L31.9105 41.6798C30.069 39.306 29.1627 38.601 26.4724 38.601H14.0567C11.3808 38.601 10.4745 39.306 8.6186 41.6798L4.28822 47.3049C3.36748 48.499 3.09413 49.3478 3.09413 51.3907V59.6199C3.09413 62.8856 4.89246 64.6696 8.17261 64.6696ZM20.2718 55.0449C18.0562 55.0449 16.7039 53.5056 16.7039 51.6497V51.4483C16.7039 50.7577 16.3011 50.0959 15.4379 50.0959H7.5396C6.93536 50.0959 6.84904 49.6068 7.13677 49.2184L12.244 42.5717C12.7763 41.8812 13.4093 41.5647 14.2582 41.5647H26.271C27.1198 41.5647 27.7528 41.8812 28.2851 42.5717L33.378 49.2184C33.6801 49.6068 33.5794 50.0959 32.9895 50.0959H25.0913C24.2281 50.0959 23.8253 50.7577 23.8253 51.4483V51.6497C23.8253 53.5056 22.4729 55.0449 20.2718 55.0449Z"
        fill="currentColor"></path>
    </g>
    <defs>
      <clipPath id="clip0_2795_333972">
        <rect x="0.5" y="0.254395" width="39.5435" height="39.5435" rx="6.2029" fill="none"></rect>
      </clipPath>
    </defs>
  </symbol>
  <symbol xmlns="http://www.w3.org/2000/svg" viewBox="0 0 30 30" id="cross">
    <polygon
      points="26,5.4 24.6,4 15,13.6 5.4,4 4,5.4 13.6,15 4,24.6 5.4,26 15,16.4 24.6,26 26,24.6 16.4,15 "></polygon>
  </symbol>
  <symbol xmlns="http://www.w3.org/2000/svg" viewBox="0 0 49 49" id="doc">
    <path
      d="m40.22 14.512-12.33-9.99c-.72-.6-1.65-.93-2.61-.93H11.36c-2.28 0-4.11 1.83-4.11 4.11v33.78c0 2.28 1.86 4.11 4.11 4.11h26.28c2.28 0 4.11-1.83 4.11-4.11v-23.76c0-1.23-.57-2.43-1.53-3.21Zm-13.11-6.81 10.38 9.06c.42.36.18 1.05-.39 1.05h-8.88c-.6 0-1.11-.48-1.11-1.11v-9Zm8.85 33.75H13.01c-.69 0-1.26-.57-1.26-1.29v-31.2c0-.69.57-1.26 1.26-1.26h10.35v10.14c0 2.07 1.68 3.75 3.75 3.75h10.11v18.6c0 .69-.57 1.26-1.26 1.26Z"
      fill="currentColor"></path>
    <path d="M17.75 27.232h13.5M17.75 34.402h13.5" stroke="currentColor" stroke-width="1.824"
      stroke-linecap="round"
      stroke-linejoin="round"></path>
  </symbol>
  <symbol xmlns="http://www.w3.org/2000/svg" viewBox="0 0 30 20" id="eye">
    <path
      d="M14.951 19.558c1.468 0 2.85-.176 4.147-.527a17.635 17.635 0 0 0 3.598-1.386 18.18 18.18 0 0 0 2.933-1.912 17.422 17.422 0 0 0 2.213-2.084c.609-.701 1.07-1.35 1.386-1.944.322-.601.483-1.085.483-1.45s-.161-.845-.483-1.44c-.316-.594-.777-1.238-1.386-1.933a16.965 16.965 0 0 0-2.213-2.095 17.491 17.491 0 0 0-2.944-1.901 17.305 17.305 0 0 0-3.587-1.397A15.811 15.811 0 0 0 14.95.963c-1.44 0-2.807.175-4.103.526-1.29.351-2.482.817-3.577 1.397a18.517 18.517 0 0 0-2.955 1.901 17.222 17.222 0 0 0-2.234 2.095C1.473 7.577 1.004 8.22.675 8.815.353 9.41.19 9.89.19 10.255s.162.848.484 1.45c.33.595.798 1.243 1.407 1.944.616.695 1.357 1.39 2.224 2.084a19.063 19.063 0 0 0 2.954 1.912 17.763 17.763 0 0 0 3.577 1.386c1.296.351 2.668.527 4.114.527Zm0-2.074c-1.146 0-2.245-.14-3.298-.419a15.067 15.067 0 0 1-2.943-1.117 18.12 18.12 0 0 1-2.492-1.514A17.64 17.64 0 0 1 4.306 12.8c-.537-.544-.953-1.042-1.246-1.493-.287-.452-.43-.803-.43-1.053 0-.208.143-.526.43-.956.293-.43.709-.917 1.246-1.461A16.957 16.957 0 0 1 8.71 4.626a15.17 15.17 0 0 1 2.943-1.16 12.219 12.219 0 0 1 3.298-.44c1.146 0 2.242.146 3.287.44 1.046.293 2.027.68 2.944 1.16.916.473 1.747.988 2.492 1.547a16.508 16.508 0 0 1 1.923 1.665c.537.544.949 1.031 1.235 1.46.294.43.44.75.44.957 0 .25-.146.601-.44 1.053-.286.45-.698.949-1.235 1.493a17.151 17.151 0 0 1-4.415 3.147c-.917.466-1.898.838-2.944 1.117-1.045.28-2.141.42-3.287.42Zm.01-1.44a5.64 5.64 0 0 0 2.246-.45 5.992 5.992 0 0 0 1.848-1.257 6.007 6.007 0 0 0 1.246-1.848c.3-.702.451-1.446.451-2.234a5.715 5.715 0 0 0-1.697-4.093 5.694 5.694 0 0 0-1.848-1.235 5.639 5.639 0 0 0-2.245-.451 5.72 5.72 0 0 0-2.277.45 5.694 5.694 0 0 0-1.848 1.236A5.715 5.715 0 0 0 9.59 8a5.785 5.785 0 0 0-.44 2.256c0 .788.15 1.532.45 2.234.301.695.717 1.31 1.247 1.848.53.53 1.142.949 1.837 1.257.701.3 1.46.45 2.277.45Zm-.01-3.91c-.523 0-.967-.185-1.332-.558a1.824 1.824 0 0 1-.548-1.321 1.8 1.8 0 0 1 .548-1.321c.365-.366.81-.548 1.332-.548a1.8 1.8 0 0 1 1.322.548c.372.365.558.805.558 1.32 0 .51-.186.95-.558 1.322a1.784 1.784 0 0 1-1.322.559Z"
      fill="currentColor"></path>
  </symbol>
  <symbol xmlns="http://www.w3.org/2000/svg" viewBox="0 0 14 14" id="globe">
    <path
      d="M7.12 12.8223C10.4305 12.8223 13.1727 10.0859 13.1727 6.76953C13.1727 3.45898 10.4305 0.716797 7.11414 0.716797C3.80359 0.716797 1.06726 3.45898 1.06726 6.76953C1.06726 10.0859 3.80945 12.8223 7.12 12.8223ZM3.59265 3.08398C4.17859 2.52734 4.88757 2.09961 5.67859 1.86523C5.26257 2.28125 4.91101 2.86719 4.64734 3.58203C4.23718 3.45312 3.88562 3.2832 3.59265 3.08398ZM8.56726 1.87109C9.35242 2.10547 10.0614 2.52734 10.6415 3.08398C10.3544 3.28906 10.0028 3.45312 9.59265 3.58789C9.32898 2.86719 8.97742 2.28125 8.56726 1.87109ZM7.53015 2.05859C8.01648 2.29297 8.46179 2.92578 8.7782 3.78711C8.39148 3.85742 7.97546 3.89844 7.53015 3.91602V2.05859ZM5.46179 3.78711C5.78406 2.92578 6.22351 2.29297 6.70984 2.05859V3.91602C6.26453 3.89844 5.84851 3.85742 5.46179 3.78711ZM2.02234 6.35938C2.10437 5.36328 2.47937 4.44336 3.05359 3.6875C3.41101 3.95117 3.8739 4.17969 4.41296 4.34961C4.26062 4.95898 4.16101 5.63867 4.13171 6.35938H2.02234ZM10.1083 6.35938C10.079 5.63867 9.97937 4.95898 9.82703 4.34961C10.3661 4.17969 10.829 3.95703 11.1805 3.6875C11.7606 4.44336 12.1356 5.36328 12.2177 6.35938H10.1083ZM4.9696 6.35938C4.9989 5.7207 5.08679 5.11133 5.22156 4.56055C5.69031 4.6543 6.18835 4.71289 6.70984 4.73633V6.35938H4.9696ZM7.53015 6.35938V4.73633C8.05164 4.71289 8.54968 4.6543 9.01843 4.56055C9.1532 5.11133 9.24109 5.7207 9.27039 6.35938H7.53015ZM2.02234 7.17969H4.13171C4.16101 7.91211 4.26062 8.59766 4.41296 9.21289C3.87976 9.38281 3.42273 9.60547 3.07117 9.86914C2.48523 9.10742 2.10437 8.18164 2.02234 7.17969ZM4.9696 7.17969H6.70984V8.83203C6.19421 8.85547 5.69031 8.91406 5.22742 9.00195C5.08679 8.44531 4.99304 7.82422 4.9696 7.17969ZM7.53015 8.83203V7.17969H9.27039C9.24695 7.82422 9.1532 8.44531 9.01257 9.00195C8.54968 8.91406 8.05164 8.85547 7.53015 8.83203ZM9.82703 9.21289C9.98523 8.59766 10.079 7.91211 10.1083 7.17969H12.2177C12.1356 8.18164 11.7548 9.10742 11.1688 9.86914C10.8173 9.60547 10.3602 9.38281 9.82703 9.21289ZM7.53015 9.65234C7.9696 9.66992 8.38562 9.71094 8.76648 9.78125C8.45007 10.625 8.01062 11.252 7.53015 11.4805V9.65234ZM5.47351 9.78125C5.85437 9.71094 6.27039 9.66992 6.70984 9.65234V11.4805C6.22937 11.252 5.78992 10.625 5.47351 9.78125ZM3.61023 10.4727C3.89734 10.2734 4.2489 10.1094 4.6532 9.98047C4.91687 10.6836 5.26257 11.2578 5.66687 11.668C4.89343 11.4336 4.19031 11.0176 3.61023 10.4727ZM9.58679 9.98047C9.99109 10.1094 10.3427 10.2734 10.6298 10.4727C10.0497 11.0176 9.34656 11.4336 8.57312 11.668C8.97742 11.2578 9.32312 10.6836 9.58679 9.98047Z"
      fill="currentColor"></path>
  </symbol>
  <symbol xmlns="http://www.w3.org/2000/svg" viewBox="0 0 30 30" id="hamburger">
    <path d="M2,4v2h26V4H2z M2,16h26v-2H2V16z M2,26h26v-2H2V26z"></path>
  </symbol>
  <symbol xmlns="http://www.w3.org/2000/svg" viewBox="0 0 37 33" id="home">
    <path
      d="M0.0834746 15.6315C0.0801549 16.6386 0.811356 17.403 1.96228 17.4061C2.49458 17.4075 3.01335 17.1499 3.44618 16.777L17.584 5.00334C18.089 4.5587 18.65 4.5602 19.1809 5.0076L33.212 16.8565C33.6424 17.2317 34.1594 17.4921 34.6773 17.4934C35.7851 17.4964 36.5643 16.8079 36.5678 15.7433C36.5697 15.1679 36.3125 14.6205 35.8247 14.2163L31.779 10.7815L31.7997 4.4946C31.8019 3.81843 31.3574 3.38564 30.6956 3.38388L28.0484 3.37681C27.3723 3.375 26.9249 3.80541 26.9226 4.48158L26.9154 6.68272L20.9041 1.60256C19.3834 0.318089 17.398 0.312789 15.8688 1.58912L0.836508 14.1373C0.346037 14.5388 0.0852293 15.0992 0.0834746 15.6315ZM4.9893 28.7365C4.98209 30.9232 6.43063 32.2938 8.73248 32.3L27.8091 32.3509C30.1109 32.3571 31.5685 30.9942 31.5757 28.8075L31.6093 18.6074L19.2854 8.20172C18.6972 7.69662 18.0066 7.70916 17.4296 8.19677L5.02292 18.5364L4.9893 28.7365ZM22.153 28.6241L14.3986 28.6034L14.4284 19.5686C14.4307 18.8781 14.8925 18.4333 15.5831 18.4351L21.0644 18.4498C21.7549 18.4516 22.1851 18.8988 22.1828 19.5893L22.153 28.6241Z"
      fill="currentColor"></path>
  </symbol>
  <symbol xmlns="http://www.w3.org/2000/svg" viewBox="0 0 41 41" id="inbox">
    <path
      d="M8.1862 36.2334L32.37 36.2979C35.6645 36.3067 37.4544 34.5276 37.4651 31.2618L37.4922 23.0327C37.499 20.9898 37.2429 20.1259 36.3116 18.9438L31.9998 13.3071C30.1662 10.9284 29.2621 10.221 26.5718 10.2138L14.1562 10.1807C11.4803 10.1735 10.5717 10.876 8.70796 13.2449L4.35906 18.8584C3.43439 20.0501 3.15825 20.8981 3.15151 22.941L3.12438 31.1701C3.11362 34.4359 4.90606 36.2246 8.1862 36.2334ZM20.317 26.6411C18.1015 26.6352 16.7542 25.0922 16.7603 23.2363L16.761 23.0349C16.7633 22.3444 16.3626 21.6815 15.4995 21.6792L7.60123 21.6581C6.99699 21.6565 6.91229 21.1671 7.2013 20.7795L12.3304 14.1465C12.865 13.4574 13.4991 13.1426 14.3479 13.1448L26.3607 13.1769C27.2095 13.1792 27.8414 13.4974 28.3715 14.1893L33.4424 20.8495C33.7432 21.2388 33.6409 21.7276 33.0511 21.7261L25.1528 21.705C24.2896 21.7027 23.8846 22.3634 23.8824 23.0539L23.8817 23.2553C23.8756 25.1112 22.5182 26.647 20.317 26.6411Z"
      fill="currentColor"></path>
  </symbol>
  <symbol xmlns="http://www.w3.org/2000/svg" fill="none" viewBox="0 0 87 30" id="logo">
    <path
      d="M1.805 1.294l16.6-1.226c2.039-.175 2.563-.057 3.845.875l5.299 3.733c.874.642 1.165.817 1.165 1.516v20.473c0 1.283-.466 2.042-2.097 2.158L7.34 29.99c-1.224.058-1.807-.117-2.448-.934L.99 23.982c-.7-.934-.99-1.633-.99-2.45V3.334c0-1.049.466-1.924 1.805-2.04z"
      fill="#fff"></path>
    <path fill-rule="evenodd" clip-rule="evenodd"
      d="M18.405.068l-16.6 1.226C.466 1.41 0 2.285 0 3.334v18.198c0 .817.29 1.516.99 2.45l3.902 5.074c.641.817 1.224.992 2.448.934l19.277-1.167c1.63-.116 2.097-.875 2.097-2.158V6.192c0-.663-.262-.854-1.033-1.42a85.473 85.473 0 01-.133-.096L22.25.943c-1.282-.932-1.806-1.05-3.845-.875zM7.776 5.857c-1.574.106-1.931.13-2.825-.597L2.678 3.452c-.231-.234-.115-.526.467-.584l15.958-1.166c1.34-.117 2.038.35 2.562.758l2.737 1.983c.117.059.408.408.058.408l-16.48.992-.204.014zM5.941 26.49V9.11c0-.759.233-1.109.931-1.168L25.8 6.834c.642-.058.932.35.932 1.108v17.264c0 .759-.117 1.401-1.165 1.459l-18.113 1.05c-1.048.058-1.513-.291-1.513-1.225zm17.88-16.448c.116.525 0 1.05-.525 1.11l-.873.173v12.832c-.758.408-1.456.641-2.039.641-.932 0-1.165-.292-1.863-1.166l-5.709-8.982v8.69l1.806.409s0 1.05-1.457 1.05l-4.017.233c-.117-.234 0-.817.407-.933l1.049-.291v-11.49L9.144 12.2c-.117-.525.174-1.283.99-1.342l4.31-.29 5.94 9.098v-8.049l-1.514-.174c-.117-.643.349-1.11.931-1.167l4.02-.234z"
      fill="#000"></path>
    <path
      d="M41.434 21.251v-7.91h.137l5.704 7.91h1.796V9.627h-1.997v7.902h-.137l-5.704-7.902H39.43V21.25h2.005zM54.715 21.429c2.635 0 4.238-1.724 4.238-4.584 0-2.852-1.611-4.584-4.238-4.584-2.618 0-4.237 1.74-4.237 4.584 0 2.86 1.595 4.584 4.237 4.584zm0-1.676c-1.393 0-2.19-1.063-2.19-2.908 0-1.837.797-2.908 2.19-2.908 1.386 0 2.183 1.071 2.183 2.908 0 1.845-.789 2.908-2.183 2.908zM60.778 10.28v2.215h-1.393v1.595h1.393v4.809c0 1.708.806 2.393 2.828 2.393.386 0 .757-.04 1.047-.097v-1.563c-.242.024-.395.04-.677.04-.837 0-1.208-.386-1.208-1.256V14.09h1.885v-1.595h-1.885v-2.216h-1.99zM65.85 21.251h1.99v-8.813h-1.99v8.813zm.991-10.27c.66 0 1.192-.533 1.192-1.201 0-.669-.531-1.209-1.192-1.209-.652 0-1.192.54-1.192 1.209 0 .668.54 1.2 1.192 1.2zM73.299 21.429c2.634 0 4.237-1.724 4.237-4.584 0-2.852-1.611-4.584-4.237-4.584-2.619 0-4.238 1.74-4.238 4.584 0 2.86 1.595 4.584 4.238 4.584zm0-1.676c-1.394 0-2.192-1.063-2.192-2.908 0-1.837.798-2.908 2.192-2.908 1.385 0 2.183 1.071 2.183 2.908 0 1.845-.79 2.908-2.183 2.908zM78.725 21.251h1.998V16.12c0-1.297.75-2.119 1.941-2.119 1.217 0 1.78.677 1.78 2.022v5.228h1.999v-5.703c0-2.103-1.072-3.287-3.037-3.287-1.314 0-2.2.604-2.619 1.587h-.137v-1.41h-1.925v8.813z"
      fill="#000"></path>
  </symbol>
  <symbol xmlns="http://www.w3.org/2000/svg" viewBox="0 0 8 6" id="navCaret">
    <path d="m1 1 3 3 3-3" stroke="currentColor" stroke-width="1.5" fill="none"></path>
  </symbol>
  <symbol xmlns="http://www.w3.org/2000/svg" viewBox="0 0 31 27" id="palette">
    <path
      d="M16.167 24.7672C17.7497 24.7672 19.1318 24.5881 20.3135 24.23C21.5023 23.8791 22.4261 23.3886 23.085 22.7584C23.751 22.1282 24.084 21.3977 24.084 20.567C24.084 20.0155 23.9909 19.5608 23.8047 19.2027C23.6257 18.8375 23.418 18.5224 23.1816 18.2574C22.9525 17.9924 22.7448 17.7382 22.5586 17.4947C22.3796 17.244 22.29 16.9612 22.29 16.6461C22.29 16.3524 22.4404 16.091 22.7412 15.8619C23.042 15.6255 23.4287 15.3928 23.9014 15.1636C24.3812 14.9345 24.8861 14.6838 25.416 14.4117C25.946 14.1324 26.4473 13.7994 26.9199 13.4127C27.3997 13.0259 27.79 12.564 28.0908 12.0269C28.3916 11.4826 28.542 10.831 28.542 10.0718C28.542 8.94749 28.2627 7.92698 27.7041 7.01031C27.1527 6.09365 26.3649 5.30589 25.3408 4.64703C24.3239 3.98818 23.1064 3.4833 21.6885 3.13239C20.2705 2.77431 18.695 2.59528 16.9619 2.59528C14.7204 2.59528 12.6758 2.86741 10.8281 3.41168C8.98763 3.94879 7.40137 4.71507 6.06934 5.71051C4.74447 6.70595 3.72038 7.89476 2.99707 9.27692C2.28092 10.6519 1.92285 12.1773 1.92285 13.8531C1.92285 15.4859 2.26302 16.9719 2.94336 18.3111C3.6237 19.6431 4.59408 20.789 5.85449 21.7486C7.12207 22.7154 8.62598 23.4602 10.3662 23.983C12.1064 24.5058 14.04 24.7672 16.167 24.7672ZM16.167 22.5005C14.3623 22.5005 12.7223 22.2929 11.2471 21.8775C9.77897 21.4693 8.51855 20.8856 7.46582 20.1265C6.41309 19.3602 5.60026 18.4472 5.02734 17.3873C4.46159 16.3274 4.17871 15.1493 4.17871 13.8531C4.17871 12.4996 4.47949 11.2714 5.08105 10.1685C5.68978 9.06565 6.55632 8.11676 7.68066 7.32184C8.80501 6.52692 10.1514 5.91819 11.7197 5.49567C13.2881 5.06598 15.0355 4.85114 16.9619 4.85114C18.8382 4.85114 20.4746 5.06956 21.8711 5.50641C23.2676 5.94326 24.349 6.55556 25.1152 7.34332C25.8887 8.12392 26.2754 9.03343 26.2754 10.0718C26.2754 10.6734 26.125 11.1819 25.8242 11.5972C25.5234 12.0054 25.1331 12.3563 24.6533 12.65C24.1807 12.9436 23.6758 13.2157 23.1387 13.4664C22.6087 13.7099 22.1038 13.9677 21.624 14.2398C21.1442 14.5119 20.7539 14.8306 20.4531 15.1959C20.1523 15.5611 20.002 16.0158 20.002 16.5601C20.002 17.0256 20.0915 17.4195 20.2705 17.7418C20.4567 18.064 20.668 18.3541 20.9043 18.6119C21.1406 18.8697 21.3483 19.1275 21.5273 19.3853C21.7135 19.636 21.8066 19.926 21.8066 20.2554C21.8066 20.9358 21.291 21.48 20.2598 21.8882C19.2357 22.2964 17.8714 22.5005 16.167 22.5005ZM15.2432 20.0406C15.8089 20.0406 16.321 19.9081 16.7793 19.6431C17.2448 19.371 17.61 19.0058 17.875 18.5474C18.1471 18.0891 18.2832 17.5735 18.2832 17.0005C18.2832 16.4491 18.1436 15.9442 17.8643 15.4859C17.5921 15.0276 17.2269 14.6623 16.7686 14.3902C16.3102 14.1109 15.8018 13.9713 15.2432 13.9713C14.6917 13.9713 14.1868 14.1109 13.7285 14.3902C13.2702 14.6623 12.9014 15.0276 12.6221 15.4859C12.3499 15.9442 12.2139 16.4491 12.2139 17.0005C12.2139 17.5591 12.3499 18.0712 12.6221 18.5367C12.9014 18.995 13.2702 19.3602 13.7285 19.6324C14.1868 19.9045 14.6917 20.0406 15.2432 20.0406ZM15.2432 18.6334C14.9424 18.6334 14.6702 18.5617 14.4268 18.4185C14.1833 18.2753 13.9863 18.0783 13.8359 17.8277C13.6927 17.577 13.6211 17.3013 13.6211 17.0005C13.6211 16.664 13.6963 16.3775 13.8467 16.1412C13.9971 15.9048 14.194 15.7222 14.4375 15.5933C14.681 15.4573 14.9424 15.3892 15.2217 15.3892C15.5081 15.3821 15.7767 15.4429 16.0273 15.5718C16.278 15.7007 16.4821 15.8834 16.6396 16.1197C16.7972 16.356 16.876 16.6496 16.876 17.0005C16.876 17.3013 16.8044 17.577 16.6611 17.8277C16.5179 18.0783 16.321 18.2753 16.0703 18.4185C15.8268 18.5617 15.5511 18.6334 15.2432 18.6334ZM7.77734 15.3033C8.27148 15.3033 8.69043 15.1278 9.03418 14.7769C9.37793 14.4188 9.5498 13.9963 9.5498 13.5093C9.5498 13.0152 9.37793 12.5963 9.03418 12.2525C8.69043 11.9016 8.27148 11.7261 7.77734 11.7261C7.29753 11.7261 6.88216 11.9016 6.53125 12.2525C6.18034 12.5963 6.00488 13.0152 6.00488 13.5093C6.00488 13.9963 6.18034 14.4188 6.53125 14.7769C6.88216 15.1278 7.29753 15.3033 7.77734 15.3033ZM11.6445 11.898C12.2604 11.898 12.7832 11.6832 13.2129 11.2535C13.6497 10.8238 13.8682 10.2938 13.8682 9.66364C13.8682 9.05491 13.6497 8.53929 13.2129 8.11676C12.7832 7.68707 12.2604 7.47223 11.6445 7.47223C11.0215 7.47223 10.4915 7.68707 10.0547 8.11676C9.625 8.53929 9.41016 9.05491 9.41016 9.66364C9.41016 10.2938 9.625 10.8238 10.0547 11.2535C10.4915 11.6832 11.0215 11.898 11.6445 11.898ZM17.0156 10.19C17.5098 10.19 17.9287 10.0145 18.2725 9.66364C18.6234 9.31272 18.7988 8.8902 18.7988 8.39606C18.7988 7.89476 18.6234 7.47223 18.2725 7.12848C17.9287 6.77757 17.5098 6.60211 17.0156 6.60211C16.5215 6.60211 16.0954 6.77757 15.7373 7.12848C15.3864 7.47939 15.2109 7.90192 15.2109 8.39606C15.2109 8.8902 15.3864 9.31272 15.7373 9.66364C16.0954 10.0145 16.5215 10.19 17.0156 10.19ZM21.8389 10.8668C22.2399 10.8668 22.5801 10.7271 22.8594 10.4478C23.1458 10.1614 23.2891 9.81403 23.2891 9.40582C23.2891 9.01194 23.1458 8.67177 22.8594 8.38531C22.5801 8.09886 22.2399 7.95563 21.8389 7.95563C21.4378 7.95563 21.0905 8.09886 20.7969 8.38531C20.5104 8.67177 20.3672 9.01194 20.3672 9.40582C20.3672 9.81403 20.5104 10.1614 20.7969 10.4478C21.0905 10.7271 21.4378 10.8668 21.8389 10.8668Z"
      fill="currentColor"></path>
  </symbol>
  <symbol xmlns="http://www.w3.org/2000/svg" viewBox="0 0 49 49" id="path">
    <path clip-rule="evenodd"
      d="m48.2037 9.1569-6.1556 6.2475-.0306-.0613c-3.0319 3.0932-5.2982 3.7975-9.7082 3.3382l-3.1543 3.185c1.1025 2.0212.8268 4.6244-.8575 6.3394-2.0519 2.1131-5.4513 2.1131-7.5644.0612s-2.1438-5.4512-.0613-7.5644c1.6844-1.715 4.2569-2.0212 6.3088-.9494l3.1544-3.185c-.5207-4.41.1225-6.6762 3.1543-9.76933l6.1557-6.2475 1.715 7.04375zm-14.5467 12.7706h.8269v.0612c1.1331 0 2.1438-.1225 3.0931-.3369.2144.9494.3369 1.8988.3369 2.9094 0 7.4113-6.0025 13.4138-13.4137 13.4138-7.4113 0-13.4138-6.0025-13.4138-13.4138 0-7.4112 6.0025-13.4137 13.4138-13.4137.9187 0 1.8375.0918 2.695.2756-.245 1.1944-.3369 2.4806-.245 3.92-.7963-.2144-1.5925-.3675-2.45-.3675-5.2675 0-9.555 4.2875-9.555 9.555s4.2875 9.555 9.555 9.555 9.555-4.2875 9.555-9.555c0-.9188-.1532-1.7763-.3982-2.6031zm8.483-2.5419c.7044-.5206 1.3781-1.1331 2.0825-1.8375l1.5925-1.6231c1.0413 2.6644 1.6538 5.5431 1.6538 8.575 0 12.6787-10.2901 22.9688-22.9688 22.9688-12.6788 0-22.96875-10.2901-22.96875-22.9688 0-12.6788 10.28995-22.96875 22.96875-22.96875 2.8787 0 5.635.55125 8.1769 1.53125l-1.5619 1.5925c-.7044.70438-1.2863 1.40875-1.8069 2.11313-1.5312-.39813-3.1544-.64313-4.8081-.64313-10.1369 0-18.375 8.2381-18.375 18.375s8.2381 18.375 18.375 18.375 18.375-8.2381 18.375-18.375c0-1.7763-.2756-3.4913-.735-5.1144z"
      fill="currentColor" fill-rule="evenodd"></path>
  </symbol>
  <symbol xmlns="http://www.w3.org/2000/svg" viewBox="0 0 41 40" id="plan">
    <path
      d="M38.5849 22.6169C38.5761 20.9049 36.2505 19.3737 33.2581 19.3657L27.1582 19.3494C26.3526 19.3472 26.0654 19.1738 25.5636 18.6546L15.686 8.08278C15.3562 7.73661 14.9828 7.56298 14.5656 7.56186L12.4363 7.55618C12.0623 7.55518 11.831 7.89984 12.0167 8.28878L17.1309 19.2938L9.64716 20.0939L6.98643 15.4831C6.77182 15.1228 6.45583 14.9637 5.99546 14.9625L5.3193 14.9607C4.90209 14.9596 4.61341 15.2465 4.61208 15.6494L4.56674 29.4029C4.56541 29.8057 4.85219 30.0942 5.2694 30.0953L5.94557 30.0971C6.40594 30.0984 6.72302 29.9266 6.93995 29.5819L9.63103 24.9853L17.1093 25.8253L11.9228 36.7885C11.7344 37.1908 11.9635 37.5367 12.3375 37.5377L14.4667 37.5434C14.8839 37.5445 15.2586 37.3729 15.5906 37.0285L25.5377 26.5096C26.043 25.9787 26.3312 25.8212 27.1369 25.8233L33.2368 25.8396C36.2292 25.8476 38.5648 24.3289 38.5849 22.6169Z"
      fill="currentColor"></path>
  </symbol>
  <symbol xmlns="http://www.w3.org/2000/svg" viewBox="0 0 64.000000 64.000000" id="projectsIcon">
    <g transform="translate(0.000000,64.000000) scale(0.100000,-0.100000)" stroke="none">
      <path
        d="M464 597 c-16 -18 -36 -43 -45 -57 -15 -22 -18 -23 -48 -10 -18 7 -62 12 -98 12 -151 -3 -263 -112 -263 -258 0 -81 18 -129 67 -184 132 -147 365 -113 449 65 28 59 32 147 9 203 -14 33 -14 38 -1 47 69 46 96 68 96 76 0 5 -19 17 -41 26 -28 11 -46 26 -56 47 l-14 31 6 -35 c5 -34 1 -39 -106 -145 -61 -61 -115 -120 -120 -132 -10 -27 -44 -31 -53 -7 -8 20 10 44 32 44 9 0 42 26 74 57 48 47 58 63 58 91 0 39 11 62 58 120 40 49 37 57 -4 9z m113 -89 c18 -7 32 -17 30 -22 -2 -5 -25 -25 -51 -43 -35 -24 -59 -33 -88 -33 -35 0 -39 2 -28 15 7 8 22 15 34 16 11 0 15 3 8 6 -17 7 4 33 26 33 8 0 12 3 9 7 -7 6 10 33 21 33 3 0 21 -5 39 -12z m-238 -39 c17 -6 31 -15 31 -21 0 -6 -8 -7 -17 -3 -65 26 -157 9 -201 -38 -106 -113 -27 -287 130 -287 50 0 111 32 141 72 25 33 34 117 17 158 -15 36 -4 53 15 26 24 -33 29 -102 11 -151 -28 -72 -115 -135 -186 -135 -71 0 -158 63 -186 136 -55 144 96 295 245 243z m-29 -99 c0 -5 -15 -10 -33 -10 -61 0 -94 -66 -57 -113 16 -20 30 -27 56 -27 48 0 74 29 74 82 0 33 3 39 12 30 21 -21 14 -80 -13 -108 -38 -38 -88 -42 -126 -10 -17 15 -34 40 -38 56 -7 32 15 83 42 99 23 13 83 14 83 1z"></path>
      <path d="M482 545 c0 -16 2 -22 5 -12 2 9 2 23 0 30 -3 6 -5 -1 -5 -18z"></path>
      <path d="M442 505 c0 -16 2 -22 5 -12 2 9 2 23 0 30 -3 6 -5 -1 -5 -18z"></path>
    </g>
  </symbol>
  <symbol xmlns="http://www.w3.org/2000/svg" viewBox="0 0 18 18" id="shareFacebook">
    <path
      d="M17.999 8.999c0-4.97-4.029-8.999-8.999-8.999s-8.999 4.029-8.999 8.999c0 4.492 3.291 8.215 7.593 8.89v-6.289h-2.285v-2.601h2.285v-1.983c0-2.255 1.344-3.501 3.399-3.501 0.985 0 2.015 0.176 2.015 0.176v2.215h-1.135c-1.118 0-1.467 0.694-1.467 1.405v1.688h2.496l-0.399 2.601h-2.097v6.289c4.302-0.675 7.593-4.398 7.593-8.89z">
    </path>
  </symbol>
  <symbol xmlns="http://www.w3.org/2000/svg" viewBox="0 0 18 18" id="shareInstagram">
    <path fill-rule="evenodd" clip-rule="evenodd"
      d="M9 1.621c2.405 0 2.689.011 3.635.053.879.039 1.354.186 1.67.309.418.162.721.359 1.034.671.316.316.51.615.675 1.034.123.316.271.795.309 1.67.042.949.053 1.234.053 3.635s-.011 2.689-.053 3.635c-.039.879-.186 1.354-.309 1.67a2.802 2.802 0 01-.671 1.034c-.316.316-.615.51-1.034.675-.316.123-.795.271-1.67.309-.949.042-1.234.053-3.635.053s-2.689-.011-3.635-.053c-.879-.039-1.354-.186-1.67-.309a2.802 2.802 0 01-1.034-.671 2.815 2.815 0 01-.675-1.034c-.123-.316-.271-.795-.309-1.67-.042-.949-.053-1.234-.053-3.635s.011-2.689.053-3.635c.039-.879.186-1.354.309-1.67.162-.418.359-.721.671-1.034.316-.316.615-.51 1.034-.675.316-.123.795-.271 1.67-.309.946-.042 1.23-.053 3.635-.053zM9 0C6.557 0 6.251.011 5.291.053 4.335.095 3.677.25 3.108.471a4.389 4.389 0 00-1.596 1.041A4.404 4.404 0 00.471 3.105C.25 3.678.095 4.332.053 5.288.011 6.251 0 6.557 0 9c0 2.443.011 2.749.053 3.709.042.956.197 1.614.418 2.183a4.389 4.389 0 001.041 1.596 4.392 4.392 0 001.593 1.037c.573.221 1.227.376 2.183.418.96.042 1.266.053 3.709.053s2.749-.011 3.709-.053c.956-.042 1.614-.197 2.183-.418a4.413 4.413 0 001.593-1.037c.5-.499.809-1.002 1.037-1.593.221-.573.376-1.227.418-2.183.042-.96.053-1.266.053-3.709s-.011-2.749-.053-3.709c-.042-.956-.197-1.614-.418-2.183a4.21 4.21 0 00-1.03-1.6A4.392 4.392 0 0014.896.474c-.573-.221-1.227-.376-2.183-.418C11.75.01 11.444 0 9 0zm0 4.377A4.625 4.625 0 004.377 9 4.625 4.625 0 009 13.623 4.625 4.625 0 0013.623 9 4.625 4.625 0 009 4.377zm0 7.622A3 3 0 119 6 3 3 0 019 12zm4.806-6.726a1.079 1.079 0 100-2.158 1.079 1.079 0 000 2.158z">
    </path>
  </symbol>
  <symbol xmlns="http://www.w3.org/2000/svg" viewBox="0 0 20 18" id="shareLinkedIn">
    <path clip-rule="evenodd"
      d="m2.0769 4.15379c1.14644 0 2.07689-.93045 2.07689-2.07689 0-1.14645-.93045-2.0769-2.07689-2.0769-1.14645 0-2.0769.93045-2.0769 2.0769 0 1.14644.93045 2.07689 2.0769 2.07689zm-2.0769 13.84621v-12.46143h4.15379v12.46143zm6.92371-12.46143h3.83119v1.96336h.0554c.533-.95675 1.8373-1.96336 3.7827-1.96336 4.0444 0 4.7921 2.5172 4.7921 5.79173v6.6697h-3.9946v-5.9123c0-1.4095-.0291-3.22471-2.0769-3.22471-2.0796 0-2.3981 1.53551-2.3981 3.12231v6.0147h-3.99179z"
      fill-rule="evenodd"></path>
  </symbol>
  <symbol xmlns="http://www.w3.org/2000/svg" viewBox="0 0 22 18" id="shareTwitter">
    <path
      d="m22 2.12799c-.8083.36413-1.6798.60642-2.5899.71441.9321-.56211 1.6455-1.45374 1.9851-2.514271-.8716.51919-1.8393.899931-2.8648 1.103451-.8248-.883314-1.9974-1.43158-3.2951-1.43158-2.4922 0-4.5102 2.03384-4.5102 4.54257 0 .35444.0385.70057.1154 1.03423-3.75002-.19106-7.07532-1.99923-9.30088-4.750248-.38628.670098-.610352 1.453738-.610352 2.284438 0 1.57557.794552 2.96839 2.005622 3.7811-.73956-.02216-1.43514-.22983-2.045487-.56627v.05677c0 2.20275 1.554737 4.04141 3.620847 4.45671-.37803.1039-.77806.1606-1.19046.1606-.29142 0-.57185-.0304-.85091-.0817.57598 1.8041 2.24207 3.1193 4.2147 3.1581-1.54649 1.2198-3.48888 1.9466-5.60585 1.9466-.365658 0-.721694-.0221-1.07773-.065 2.0015 1.2931 4.37278 2.0421 6.92002 2.0421 8.29878 0 12.84068-6.9267 12.84068-12.9327 0-.19937-.0041-.3932-.0124-.58841.8812-.63549 1.6455-1.43712 2.2503-2.34952z">
    </path>
  </symbol>
  <symbol xmlns="http://www.w3.org/2000/svg" viewBox="0 0 18 18" id="shareYoutube">
    <path
      d="M9 2.070c-8.845 0-9 0.787-9 6.93s0.155 6.93 9 6.93 9-0.787 9-6.93-0.155-6.93-9-6.93zM11.884 9.301l-4.041 1.886c-0.354 0.164-0.644-0.020-0.644-0.41v-3.553c0-0.39 0.29-0.574 0.644-0.41l4.041 1.886c0.354 0.166 0.354 0.436 0 0.601z">
    </path>
  </symbol>
  <symbol xmlns="http://www.w3.org/2000/svg" viewBox="0 0 26 21" id="shuffle">
    <path
      d="M0.239258 16.4927C0.239258 16.8006 0.34668 17.0584 0.561523 17.2661C0.783529 17.4666 1.05924 17.5669 1.38867 17.5669H3.91309C4.83691 17.5669 5.60677 17.4129 6.22266 17.105C6.8457 16.797 7.47591 16.2707 8.11328 15.5259L14.7197 7.68408C15.0348 7.31169 15.3356 7.01807 15.6221 6.80322C15.9157 6.58122 16.2236 6.42367 16.5459 6.33057C16.8753 6.23031 17.2477 6.18018 17.6631 6.18018H19.8115V8.54346C19.8115 8.80127 19.8831 9.00537 20.0264 9.15576C20.1696 9.29899 20.3737 9.37061 20.6387 9.37061C20.7604 9.37061 20.875 9.34912 20.9824 9.30615C21.0898 9.26318 21.1865 9.20589 21.2725 9.13428L25.4941 5.62158C25.6875 5.44971 25.7842 5.24919 25.7842 5.02002C25.7842 4.79085 25.6875 4.59033 25.4941 4.41846L21.2725 0.89502C21.1865 0.823405 21.0898 0.769694 20.9824 0.733887C20.875 0.690918 20.7604 0.669434 20.6387 0.669434C20.3737 0.669434 20.1696 0.741048 20.0264 0.884277C19.8831 1.02751 19.8115 1.22803 19.8115 1.48584V4.03174H17.6738C16.7214 4.03174 15.9121 4.18929 15.2461 4.50439C14.5801 4.81234 13.9033 5.37451 13.2158 6.19092L6.72754 13.9038C6.26921 14.4552 5.82161 14.8455 5.38477 15.0747C4.94792 15.3039 4.43229 15.4185 3.83789 15.4185H1.38867C1.05924 15.4185 0.783529 15.5223 0.561523 15.73C0.34668 15.9305 0.239258 16.1847 0.239258 16.4927ZM0.239258 5.10596C0.239258 5.42106 0.34668 5.67887 0.561523 5.87939C0.783529 6.07992 1.05924 6.18018 1.38867 6.18018H3.77344C4.36784 6.18018 4.89421 6.29476 5.35254 6.52393C5.81087 6.75309 6.26921 7.14339 6.72754 7.69482L13.2803 15.4829C13.932 16.2563 14.5944 16.797 15.2676 17.105C15.9408 17.4129 16.7393 17.5669 17.6631 17.5669H19.8115V20.1558C19.8115 20.4136 19.8831 20.6141 20.0264 20.7573C20.1696 20.9006 20.3737 20.9722 20.6387 20.9722C20.7604 20.9722 20.875 20.9507 20.9824 20.9077C21.0898 20.8719 21.1865 20.8182 21.2725 20.7466L25.4941 17.2339C25.6875 17.062 25.7842 16.8615 25.7842 16.6323C25.7842 16.4032 25.6875 16.2026 25.4941 16.0308L21.2725 12.5073C21.1865 12.4357 21.0898 12.3784 20.9824 12.3354C20.875 12.2925 20.7604 12.271 20.6387 12.271C20.3737 12.271 20.1696 12.3462 20.0264 12.4966C19.8831 12.6398 19.8115 12.8403 19.8115 13.0981V15.4185H17.7168C17.0866 15.4185 16.5423 15.3039 16.084 15.0747C15.6328 14.8455 15.1745 14.4552 14.709 13.9038L8.11328 6.07275C7.47591 5.3208 6.83496 4.79443 6.19043 4.49365C5.55306 4.18571 4.77246 4.03174 3.84863 4.03174H1.38867C1.05924 4.03174 0.783529 4.132 0.561523 4.33252C0.34668 4.53304 0.239258 4.79085 0.239258 5.10596Z"
      fill="currentColor"></path>
  </symbol>
  <symbol xmlns="http://www.w3.org/2000/svg" viewBox="0 0 24 23" id="sparkles">
    <g>
      <path
        d="M10.4563 5.72844C10.9113 5.57094 10.9113 5.29094 10.4563 5.11594L7.98881 4.17094C7.55131 4.01344 7.04381 3.50594 6.86881 3.05094L5.92381 0.583437C5.76631 0.128438 5.48631 0.128438 5.31131 0.583437L4.36631 3.05094C4.20881 3.48844 3.70131 3.99594 3.24631 4.17094L0.778811 5.11594C0.323811 5.27344 0.323811 5.55344 0.778811 5.72844L3.24631 6.67344C3.68381 6.83094 4.19131 7.33844 4.36631 7.79344L5.31131 10.2609C5.46881 10.7159 5.74881 10.7159 5.92381 10.2609L6.86881 7.79344C7.02631 7.35594 7.53381 6.84844 7.98881 6.67344L10.4563 5.72844Z">
      </path>
      <path
        d="M22.4788 14.3734C23.8788 14.0234 23.8788 13.4459 22.4788 13.0959L19.3813 12.3259C17.9813 11.9759 16.5463 10.5409 16.1963 9.14091L15.4263 6.04341C15.0763 4.64341 14.4988 4.64341 14.1488 6.04341L13.3788 9.14091C13.0288 10.5409 11.5938 11.9759 10.1938 12.3259L7.09631 13.0959C5.69631 13.4459 5.69631 14.0234 7.09631 14.3734L10.1938 15.1434C11.5938 15.4934 13.0288 16.9284 13.3788 18.3284L14.1488 21.4259C14.4988 22.8259 15.0763 22.8259 15.4263 21.4259L16.1963 18.3284C16.5463 16.9284 17.9813 15.4934 19.3813 15.1434L22.4788 14.3734Z">
      </path>
    </g>
  </symbol>
  <symbol xmlns="http://www.w3.org/2000/svg" viewBox="0 0 31 31" id="wayPoint">
    <path
      d="M15.2782 30.6024C23.6224 30.6246 30.493 23.7805 30.5205 15.4364C30.548 7.10655 23.7082 0.225845 15.3784 0.203606C7.03419 0.181329 0.163558 7.02543 0.136099 15.3552C0.108593 23.6994 6.94836 30.5801 15.2782 30.6024ZM13.722 22.6136C13.0746 22.6119 12.572 22.3228 12.1135 21.7605L8.74592 17.7232C8.41636 17.3195 8.28807 16.9595 8.28944 16.5423C8.29238 15.6504 9.01403 14.9473 9.89161 14.9497C10.4095 14.9511 10.8117 15.1535 11.1986 15.615L13.6917 18.7147L19.3318 9.81007C19.7079 9.20683 20.1836 8.90598 20.7447 8.90748C21.6079 8.90978 22.3971 9.5449 22.3941 10.4369C22.393 10.7965 22.2478 11.1846 21.9876 11.5579L15.2786 21.7546C14.9027 22.3003 14.3406 22.6153 13.722 22.6136Z"
      fill="currentColor"></path>
  </symbol>
</svg>