<svg viewBox="0 0 23 21" class="calendarMonth"
    style="width: 100%; height: 100%; display: block; fill: var(--color-teal-500); flex-shrink: 0; color: var(--color-teal-500);">
    <path
        d="M4.263 20.288h14.78c1.168 0 2.046-.297 2.633-.892.594-.587.891-1.453.891-2.6V3.725c0-1.153-.297-2.023-.891-2.61-.587-.588-1.465-.882-2.632-.882H4.263c-1.16 0-2.038.294-2.632.881-.595.588-.892 1.458-.892 2.61v13.074c0 1.146.297 2.012.892 2.6.594.594 1.472.891 2.632.891Zm-.022-2.116c-.451 0-.795-.115-1.031-.344-.236-.236-.355-.587-.355-1.053V6.85c0-.466.119-.817.355-1.053s.58-.355 1.031-.355h14.814c.45 0 .795.119 1.03.355.244.236.366.587.366 1.053v9.925c0 .466-.122.817-.365 1.053-.236.23-.58.344-1.031.344H4.24Zm5.35-8.991h.634c.186 0 .318-.036.397-.108.079-.079.118-.211.118-.397v-.634c0-.193-.04-.322-.118-.387-.079-.071-.211-.107-.397-.107H9.59c-.194 0-.33.036-.408.107-.072.065-.108.194-.108.387v.634c0 .186.036.318.108.397.078.072.214.108.408.108Zm3.502 0h.634c.2 0 .336-.036.408-.108.071-.079.107-.211.107-.397v-.634c0-.193-.036-.322-.107-.387-.072-.071-.208-.107-.408-.107h-.634c-.186 0-.319.036-.398.107-.071.065-.107.194-.107.387v.634c0 .186.036.318.107.397.08.072.212.108.398.108Zm3.523 0h.623c.2 0 .337-.036.409-.108.071-.079.107-.211.107-.397v-.634c0-.193-.036-.322-.107-.387-.072-.071-.208-.107-.409-.107h-.623c-.193 0-.33.036-.408.107-.072.065-.107.194-.107.387v.634c0 .186.035.318.107.397.079.072.215.108.408.108ZM6.078 12.629h.634c.186 0 .315-.036.387-.107.078-.072.118-.201.118-.387V11.5c0-.193-.04-.326-.118-.397-.072-.072-.2-.108-.387-.108h-.634c-.193 0-.33.036-.408.107-.072.072-.107.205-.107.398v.634c0 .186.035.315.107.386.079.072.215.108.408.108Zm3.513 0h.634c.186 0 .318-.036.397-.107.079-.072.118-.201.118-.387V11.5c0-.193-.04-.326-.118-.397-.079-.072-.211-.108-.397-.108H9.59c-.194 0-.33.036-.408.107-.072.072-.108.205-.108.398v.634c0 .186.036.315.108.386.078.072.214.108.408.108Zm3.502 0h.634c.2 0 .336-.036.408-.107.071-.072.107-.201.107-.387V11.5c0-.193-.036-.326-.107-.397-.072-.072-.208-.108-.408-.108h-.634c-.186 0-.319.036-.398.107-.071.072-.107.205-.107.398v.634c0 .186.036.315.107.386.08.072.212.108.398.108Zm3.523 0h.623c.2 0 .337-.036.409-.107.071-.072.107-.201.107-.387V11.5c0-.193-.036-.326-.107-.397-.072-.072-.208-.108-.409-.108h-.623c-.193 0-.33.036-.408.107-.072.072-.107.205-.107.398v.634c0 .186.035.315.107.386.079.072.215.108.408.108ZM6.078 16.088h.634c.186 0 .315-.032.387-.097.078-.071.118-.207.118-.408v-.623c0-.193-.04-.326-.118-.398-.072-.071-.2-.107-.387-.107h-.634c-.193 0-.33.036-.408.107-.072.072-.107.205-.107.398v.623c0 .2.035.337.107.408.079.065.215.097.408.097Zm3.513 0h.634c.186 0 .318-.032.397-.097.079-.071.118-.207.118-.408v-.623c0-.193-.04-.326-.118-.398-.079-.071-.211-.107-.397-.107H9.59c-.194 0-.33.036-.408.107-.072.072-.108.205-.108.398v.623c0 .2.036.337.108.408.078.065.214.097.408.097Zm3.502 0h.634c.2 0 .336-.032.408-.097.071-.071.107-.207.107-.408v-.623c0-.193-.036-.326-.107-.398-.072-.071-.208-.107-.408-.107h-.634c-.186 0-.319.036-.398.107-.071.072-.107.205-.107.398v.623c0 .2.036.337.107.408.08.065.212.097.398.097Z"
        fill="currentColor"></path>
</svg>