<svg viewBox="0 0 27 30"
    style="width:100%;height:100%;display:block;fill:var(--color-blue-500);flex-shrink:0;color:var(--color-blue-500)"
    class="checkeredFlag">
    <path
        d="M2.00492 29.512C2.95444 29.5145 3.74826 28.7397 3.75148 27.7614L3.77667 20.1222C4.20869 19.9939 5.21679 19.68 6.62668 19.6838C11.7051 19.6974 15.4801 22.3546 20.5585 22.3682C22.7165 22.3739 24.0124 22.0465 25.1507 21.5172C26.2458 21.0022 26.7956 20.0398 26.8002 18.6731L26.846 4.76127C26.85 3.5528 26.0183 2.73054 24.8098 2.72731C23.8171 2.72466 22.5783 3.19612 20.521 3.19062C15.6008 3.17749 11.6676 0.51984 6.58919 0.506282C4.50314 0.500712 3.30805 0.799642 2.02571 1.38607C0.959488 1.87237 0.352786 2.61886 0.34847 3.92803L0.269935 27.7521C0.266758 28.716 1.05541 29.5094 2.00492 29.512ZM3.95915 12.7711L3.97291 8.59899C4.31927 8.26902 5.19818 7.86854 6.68 7.8725C7.09721 7.87361 7.98899 7.93354 8.65044 8.03601L8.663 4.22358C10.3599 4.4583 11.9551 4.96609 13.5936 5.45961L13.581 9.25766C15.1619 9.7798 16.9588 10.2162 18.5119 10.4074L18.5245 6.59493C19.1285 6.66848 19.7469 6.71329 20.3799 6.71498C21.4877 6.71794 22.4663 6.61984 23.2007 6.42039L23.1882 10.2184C22.569 10.3894 21.5471 10.5306 20.3674 10.5274C19.9358 10.5263 19.3028 10.5102 18.5119 10.4074L18.4981 14.5795C19.3322 14.6824 20.0659 14.6987 20.6126 14.7002C21.7204 14.7032 22.4976 14.5901 23.1744 14.4049L23.1622 18.0879C22.8447 18.4179 21.9226 18.8039 20.4264 18.7999C19.779 18.7982 19.1463 18.7246 18.4848 18.6221L18.4981 14.5795C16.7294 14.3302 15.2057 13.952 13.5673 13.4298L13.5543 17.3717C12.0021 16.9071 10.3922 16.4569 8.62331 16.2651L8.63668 12.2081C8.09023 12.1347 7.51505 12.0469 6.66625 12.0446C5.18443 12.0406 4.30552 12.4411 3.95915 12.7711ZM8.63668 12.2081C10.4342 12.4719 11.8282 12.9216 13.5673 13.4298L13.581 9.25766C11.9425 8.77852 10.4623 8.29981 8.65044 8.03601L8.63668 12.2081Z"
        fill="currentColor"></path>
</svg>