<svg viewBox="0 0 41 40"
    style="width:100%;height:100%;display:block;fill:var(--color-yellow-700);flex-shrink:0;color:var(--color-yellow-700)"
    class="clipboard">
    <g clip-path="url(#clip0_2795_333972)">
        <path
            d="M15.8551 11.7015H24.6741C25.6092 11.7015 26.1559 11.1116 26.1559 10.1333V8.62274C26.1559 7.63006 25.6092 7.0546 24.6741 7.0546H23.6526C23.5231 5.29943 22.0701 3.88954 20.2718 3.88954C18.4734 3.88954 17.0204 5.29943 16.8909 7.0546H15.8551C14.9343 7.0546 14.3876 7.63006 14.3876 8.62274V10.1333C14.3876 11.1116 14.9343 11.7015 15.8551 11.7015ZM20.2718 8.47887C19.5524 8.47887 18.9626 7.87463 18.9626 7.18408C18.9626 6.46475 19.5524 5.88928 20.2718 5.88928C20.9911 5.88928 21.5666 6.46475 21.5666 7.18408C21.5666 7.87463 20.9911 8.47887 20.2718 8.47887ZM12.6468 39.5827H27.8967C31.0905 39.5827 32.9608 37.6981 32.9608 34.4611V12.7661C32.9608 9.55787 31.1193 7.63006 27.983 7.63006H27.6809C27.8103 7.91779 27.8679 8.26307 27.8679 8.62274V10.0182C27.8679 10.4498 27.8103 10.8383 27.6665 11.1836H27.8823C28.875 11.1836 29.4073 11.8166 29.4073 12.7949V34.4179C29.4073 35.4394 28.8174 36.0436 27.7528 36.0436H12.7763C11.7117 36.0436 11.1219 35.4394 11.1219 34.4179V12.7949C11.1219 11.8166 11.6686 11.1836 12.6612 11.1836H12.877C12.7332 10.8383 12.6756 10.4498 12.6756 10.0182V8.62274C12.6756 8.26307 12.7332 7.91779 12.8483 7.63006H12.5605C9.42425 7.63006 7.58276 9.55787 7.58276 12.7661V34.4611C7.58276 37.6981 9.45302 39.5827 12.6468 39.5827ZM14.7041 20.2184C15.5242 20.2184 16.1716 19.571 16.1716 18.7509C16.1716 17.9453 15.5242 17.2979 14.7041 17.2979C13.9129 17.2979 13.2511 17.9597 13.2511 18.7509C13.2511 19.5566 13.9129 20.2184 14.7041 20.2184ZM18.8331 19.9738H26.084C26.7601 19.9738 27.3068 19.4271 27.3068 18.7509C27.3068 18.0891 26.7601 17.5281 26.084 17.5281H18.8331C18.1569 17.5281 17.6102 18.0891 17.6102 18.7509C17.6102 19.4271 18.1569 19.9738 18.8331 19.9738ZM14.7041 25.2824C15.5242 25.2824 16.1716 24.635 16.1716 23.815C16.1716 23.0094 15.5098 22.3763 14.7041 22.3763C13.8985 22.3763 13.2511 23.0237 13.2511 23.815C13.2511 24.635 13.8985 25.2824 14.7041 25.2824ZM18.8331 25.0523H26.084C26.7745 25.0523 27.3068 24.5056 27.3068 23.815C27.3068 23.1532 26.7601 22.6065 26.084 22.6065H18.8331C18.1569 22.6065 17.6102 23.1532 17.6102 23.815C17.6102 24.5056 18.1425 25.0523 18.8331 25.0523ZM14.7041 30.6199C15.5242 30.6199 16.1716 29.9869 16.1716 29.1668C16.1716 28.3468 15.5242 27.7138 14.7041 27.7138C13.9129 27.7138 13.2511 28.3612 13.2511 29.1668C13.2511 29.9725 13.9129 30.6199 14.7041 30.6199ZM18.8331 30.3897H26.084C26.7601 30.3897 27.3068 29.843 27.3068 29.1668C27.3068 28.4907 26.7601 27.9584 26.084 27.9584H18.8331C18.1569 27.9584 17.6102 28.4907 17.6102 29.1668C17.6102 29.843 18.1569 30.3897 18.8331 30.3897ZM8.17261 64.6696H32.3565C35.6511 64.6696 37.435 62.8856 37.435 59.6199V51.3907C37.435 49.3478 37.176 48.4846 36.2409 47.3049L31.9105 41.6798C30.069 39.306 29.1627 38.601 26.4724 38.601H14.0567C11.3808 38.601 10.4745 39.306 8.6186 41.6798L4.28822 47.3049C3.36748 48.499 3.09413 49.3478 3.09413 51.3907V59.6199C3.09413 62.8856 4.89246 64.6696 8.17261 64.6696ZM20.2718 55.0449C18.0562 55.0449 16.7039 53.5056 16.7039 51.6497V51.4483C16.7039 50.7577 16.3011 50.0959 15.4379 50.0959H7.5396C6.93536 50.0959 6.84904 49.6068 7.13677 49.2184L12.244 42.5717C12.7763 41.8812 13.4093 41.5647 14.2582 41.5647H26.271C27.1198 41.5647 27.7528 41.8812 28.2851 42.5717L33.378 49.2184C33.6801 49.6068 33.5794 50.0959 32.9895 50.0959H25.0913C24.2281 50.0959 23.8253 50.7577 23.8253 51.4483V51.6497C23.8253 53.5056 22.4729 55.0449 20.2718 55.0449Z"
            fill="currentColor"></path>
    </g>
    <defs>
        <clipPath id="clip0_2795_333972">
            <rect x="0.5" y="0.254395" width="39.5435" height="39.5435" rx="6.2029" fill="none"></rect>
        </clipPath>
    </defs>
</svg>