<svg viewBox="0 0 30 20"
    style="width:100%;height:100%;display:block;fill:var(--color-blue-500);flex-shrink:0;color:var(--color-blue-500)"
    class="eye">
    <path
        d="M14.951 19.558c1.468 0 2.85-.176 4.147-.527a17.635 17.635 0 0 0 3.598-1.386 18.18 18.18 0 0 0 2.933-1.912 17.422 17.422 0 0 0 2.213-2.084c.609-.701 1.07-1.35 1.386-1.944.322-.601.483-1.085.483-1.45s-.161-.845-.483-1.44c-.316-.594-.777-1.238-1.386-1.933a16.965 16.965 0 0 0-2.213-2.095 17.491 17.491 0 0 0-2.944-1.901 17.305 17.305 0 0 0-3.587-1.397A15.811 15.811 0 0 0 14.95.963c-1.44 0-2.807.175-4.103.526-1.29.351-2.482.817-3.577 1.397a18.517 18.517 0 0 0-2.955 1.901 17.222 17.222 0 0 0-2.234 2.095C1.473 7.577 1.004 8.22.675 8.815.353 9.41.19 9.89.19 10.255s.162.848.484 1.45c.33.595.798 1.243 1.407 1.944.616.695 1.357 1.39 2.224 2.084a19.063 19.063 0 0 0 2.954 1.912 17.763 17.763 0 0 0 3.577 1.386c1.296.351 2.668.527 4.114.527Zm0-2.074c-1.146 0-2.245-.14-3.298-.419a15.067 15.067 0 0 1-2.943-1.117 18.12 18.12 0 0 1-2.492-1.514A17.64 17.64 0 0 1 4.306 12.8c-.537-.544-.953-1.042-1.246-1.493-.287-.452-.43-.803-.43-1.053 0-.208.143-.526.43-.956.293-.43.709-.917 1.246-1.461A16.957 16.957 0 0 1 8.71 4.626a15.17 15.17 0 0 1 2.943-1.16 12.219 12.219 0 0 1 3.298-.44c1.146 0 2.242.146 3.287.44 1.046.293 2.027.68 2.944 1.16.916.473 1.747.988 2.492 1.547a16.508 16.508 0 0 1 1.923 1.665c.537.544.949 1.031 1.235 1.46.294.43.44.75.44.957 0 .25-.146.601-.44 1.053-.286.45-.698.949-1.235 1.493a17.151 17.151 0 0 1-4.415 3.147c-.917.466-1.898.838-2.944 1.117-1.045.28-2.141.42-3.287.42Zm.01-1.44a5.64 5.64 0 0 0 2.246-.45 5.992 5.992 0 0 0 1.848-1.257 6.007 6.007 0 0 0 1.246-1.848c.3-.702.451-1.446.451-2.234a5.715 5.715 0 0 0-1.697-4.093 5.694 5.694 0 0 0-1.848-1.235 5.639 5.639 0 0 0-2.245-.451 5.72 5.72 0 0 0-2.277.45 5.694 5.694 0 0 0-1.848 1.236A5.715 5.715 0 0 0 9.59 8a5.785 5.785 0 0 0-.44 2.256c0 .788.15 1.532.45 2.234.301.695.717 1.31 1.247 1.848.53.53 1.142.949 1.837 1.257.701.3 1.46.45 2.277.45Zm-.01-3.91c-.523 0-.967-.185-1.332-.558a1.824 1.824 0 0 1-.548-1.321 1.8 1.8 0 0 1 .548-1.321c.365-.366.81-.548 1.332-.548a1.8 1.8 0 0 1 1.322.548c.372.365.558.805.558 1.32 0 .51-.186.95-.558 1.322a1.784 1.784 0 0 1-1.322.559Z"
        fill="currentColor"></path>
</svg>