<svg viewBox="0 0 14 14"
    style="width:16px;height:16px;display:block;fill:var(--color-icon);flex-shrink:0" class="globe">
    <path
        d="M7.12 12.8223C10.4305 12.8223 13.1727 10.0859 13.1727 6.76953C13.1727 3.45898 10.4305 0.716797 7.11414 0.716797C3.80359 0.716797 1.06726 3.45898 1.06726 6.76953C1.06726 10.0859 3.80945 12.8223 7.12 12.8223ZM3.59265 3.08398C4.17859 2.52734 4.88757 2.09961 5.67859 1.86523C5.26257 2.28125 4.91101 2.86719 4.64734 3.58203C4.23718 3.45312 3.88562 3.2832 3.59265 3.08398ZM8.56726 1.87109C9.35242 2.10547 10.0614 2.52734 10.6415 3.08398C10.3544 3.28906 10.0028 3.45312 9.59265 3.58789C9.32898 2.86719 8.97742 2.28125 8.56726 1.87109ZM7.53015 2.05859C8.01648 2.29297 8.46179 2.92578 8.7782 3.78711C8.39148 3.85742 7.97546 3.89844 7.53015 3.91602V2.05859ZM5.46179 3.78711C5.78406 2.92578 6.22351 2.29297 6.70984 2.05859V3.91602C6.26453 3.89844 5.84851 3.85742 5.46179 3.78711ZM2.02234 6.35938C2.10437 5.36328 2.47937 4.44336 3.05359 3.6875C3.41101 3.95117 3.8739 4.17969 4.41296 4.34961C4.26062 4.95898 4.16101 5.63867 4.13171 6.35938H2.02234ZM10.1083 6.35938C10.079 5.63867 9.97937 4.95898 9.82703 4.34961C10.3661 4.17969 10.829 3.95703 11.1805 3.6875C11.7606 4.44336 12.1356 5.36328 12.2177 6.35938H10.1083ZM4.9696 6.35938C4.9989 5.7207 5.08679 5.11133 5.22156 4.56055C5.69031 4.6543 6.18835 4.71289 6.70984 4.73633V6.35938H4.9696ZM7.53015 6.35938V4.73633C8.05164 4.71289 8.54968 4.6543 9.01843 4.56055C9.1532 5.11133 9.24109 5.7207 9.27039 6.35938H7.53015ZM2.02234 7.17969H4.13171C4.16101 7.91211 4.26062 8.59766 4.41296 9.21289C3.87976 9.38281 3.42273 9.60547 3.07117 9.86914C2.48523 9.10742 2.10437 8.18164 2.02234 7.17969ZM4.9696 7.17969H6.70984V8.83203C6.19421 8.85547 5.69031 8.91406 5.22742 9.00195C5.08679 8.44531 4.99304 7.82422 4.9696 7.17969ZM7.53015 8.83203V7.17969H9.27039C9.24695 7.82422 9.1532 8.44531 9.01257 9.00195C8.54968 8.91406 8.05164 8.85547 7.53015 8.83203ZM9.82703 9.21289C9.98523 8.59766 10.079 7.91211 10.1083 7.17969H12.2177C12.1356 8.18164 11.7548 9.10742 11.1688 9.86914C10.8173 9.60547 10.3602 9.38281 9.82703 9.21289ZM7.53015 9.65234C7.9696 9.66992 8.38562 9.71094 8.76648 9.78125C8.45007 10.625 8.01062 11.252 7.53015 11.4805V9.65234ZM5.47351 9.78125C5.85437 9.71094 6.27039 9.66992 6.70984 9.65234V11.4805C6.22937 11.252 5.78992 10.625 5.47351 9.78125ZM3.61023 10.4727C3.89734 10.2734 4.2489 10.1094 4.6532 9.98047C4.91687 10.6836 5.26257 11.2578 5.66687 11.668C4.89343 11.4336 4.19031 11.0176 3.61023 10.4727ZM9.58679 9.98047C9.99109 10.1094 10.3427 10.2734 10.6298 10.4727C10.0497 11.0176 9.34656 11.4336 8.57312 11.668C8.97742 11.2578 9.32312 10.6836 9.58679 9.98047Z"
        fill="currentColor"></path>
</svg>