<svg viewBox="0 0 37 33"
    style="width:100%;height:100%;display:block;fill:var(--color-red-500);flex-shrink:0;color:var(--color-red-500)"
    class="home">
    <path
        d="M0.0834746 15.6315C0.0801549 16.6386 0.811356 17.403 1.96228 17.4061C2.49458 17.4075 3.01335 17.1499 3.44618 16.777L17.584 5.00334C18.089 4.5587 18.65 4.5602 19.1809 5.0076L33.212 16.8565C33.6424 17.2317 34.1594 17.4921 34.6773 17.4934C35.7851 17.4964 36.5643 16.8079 36.5678 15.7433C36.5697 15.1679 36.3125 14.6205 35.8247 14.2163L31.779 10.7815L31.7997 4.4946C31.8019 3.81843 31.3574 3.38564 30.6956 3.38388L28.0484 3.37681C27.3723 3.375 26.9249 3.80541 26.9226 4.48158L26.9154 6.68272L20.9041 1.60256C19.3834 0.318089 17.398 0.312789 15.8688 1.58912L0.836508 14.1373C0.346037 14.5388 0.0852293 15.0992 0.0834746 15.6315ZM4.9893 28.7365C4.98209 30.9232 6.43063 32.2938 8.73248 32.3L27.8091 32.3509C30.1109 32.3571 31.5685 30.9942 31.5757 28.8075L31.6093 18.6074L19.2854 8.20172C18.6972 7.69662 18.0066 7.70916 17.4296 8.19677L5.02292 18.5364L4.9893 28.7365ZM22.153 28.6241L14.3986 28.6034L14.4284 19.5686C14.4307 18.8781 14.8925 18.4333 15.5831 18.4351L21.0644 18.4498C21.7549 18.4516 22.1851 18.8988 22.1828 19.5893L22.153 28.6241Z"
        fill="currentColor"></path>
</svg>