<svg viewBox="0 0 41 41" class="inbox"
    style="width: 100%; height: 100%; display: block; fill: var(--color-purple-500); flex-shrink: 0; color: var(--color-purple-500);">
    <path
        d="M8.1862 36.2334L32.37 36.2979C35.6645 36.3067 37.4544 34.5276 37.4651 31.2618L37.4922 23.0327C37.499 20.9898 37.2429 20.1259 36.3116 18.9438L31.9998 13.3071C30.1662 10.9284 29.2621 10.221 26.5718 10.2138L14.1562 10.1807C11.4803 10.1735 10.5717 10.876 8.70796 13.2449L4.35906 18.8584C3.43439 20.0501 3.15825 20.8981 3.15151 22.941L3.12438 31.1701C3.11362 34.4359 4.90606 36.2246 8.1862 36.2334ZM20.317 26.6411C18.1015 26.6352 16.7542 25.0922 16.7603 23.2363L16.761 23.0349C16.7633 22.3444 16.3626 21.6815 15.4995 21.6792L7.60123 21.6581C6.99699 21.6565 6.91229 21.1671 7.2013 20.7795L12.3304 14.1465C12.865 13.4574 13.4991 13.1426 14.3479 13.1448L26.3607 13.1769C27.2095 13.1792 27.8414 13.4974 28.3715 14.1893L33.4424 20.8495C33.7432 21.2388 33.6409 21.7276 33.0511 21.7261L25.1528 21.705C24.2896 21.7027 23.8846 22.3634 23.8824 23.0539L23.8817 23.2553C23.8756 25.1112 22.5182 26.647 20.317 26.6411Z"
        fill="currentColor"></path>
</svg>