<svg viewBox="0 0 41 40"
    style="width:100%;height:100%;display:block;fill:var(--color-red-500);flex-shrink:0;color:var(--color-red-500)"
    class="plane">
    <path
        d="M38.5849 22.6169C38.5761 20.9049 36.2505 19.3737 33.2581 19.3657L27.1582 19.3494C26.3526 19.3472 26.0654 19.1738 25.5636 18.6546L15.686 8.08278C15.3562 7.73661 14.9828 7.56298 14.5656 7.56186L12.4363 7.55618C12.0623 7.55518 11.831 7.89984 12.0167 8.28878L17.1309 19.2938L9.64716 20.0939L6.98643 15.4831C6.77182 15.1228 6.45583 14.9637 5.99546 14.9625L5.3193 14.9607C4.90209 14.9596 4.61341 15.2465 4.61208 15.6494L4.56674 29.4029C4.56541 29.8057 4.85219 30.0942 5.2694 30.0953L5.94557 30.0971C6.40594 30.0984 6.72302 29.9266 6.93995 29.5819L9.63103 24.9853L17.1093 25.8253L11.9228 36.7885C11.7344 37.1908 11.9635 37.5367 12.3375 37.5377L14.4667 37.5434C14.8839 37.5445 15.2586 37.3729 15.5906 37.0285L25.5377 26.5096C26.043 25.9787 26.3312 25.8212 27.1369 25.8233L33.2368 25.8396C36.2292 25.8476 38.5648 24.3289 38.5849 22.6169Z"
        fill="currentColor"></path>
</svg>