<svg viewBox="0 0 26 21"
    style="width:100%;height:100%;display:block;fill:var(--color-blue-500);flex-shrink:0;color:var(--color-blue-500)"
    class="shuffle">
    <path
        d="M0.239258 16.4927C0.239258 16.8006 0.34668 17.0584 0.561523 17.2661C0.783529 17.4666 1.05924 17.5669 1.38867 17.5669H3.91309C4.83691 17.5669 5.60677 17.4129 6.22266 17.105C6.8457 16.797 7.47591 16.2707 8.11328 15.5259L14.7197 7.68408C15.0348 7.31169 15.3356 7.01807 15.6221 6.80322C15.9157 6.58122 16.2236 6.42367 16.5459 6.33057C16.8753 6.23031 17.2477 6.18018 17.6631 6.18018H19.8115V8.54346C19.8115 8.80127 19.8831 9.00537 20.0264 9.15576C20.1696 9.29899 20.3737 9.37061 20.6387 9.37061C20.7604 9.37061 20.875 9.34912 20.9824 9.30615C21.0898 9.26318 21.1865 9.20589 21.2725 9.13428L25.4941 5.62158C25.6875 5.44971 25.7842 5.24919 25.7842 5.02002C25.7842 4.79085 25.6875 4.59033 25.4941 4.41846L21.2725 0.89502C21.1865 0.823405 21.0898 0.769694 20.9824 0.733887C20.875 0.690918 20.7604 0.669434 20.6387 0.669434C20.3737 0.669434 20.1696 0.741048 20.0264 0.884277C19.8831 1.02751 19.8115 1.22803 19.8115 1.48584V4.03174H17.6738C16.7214 4.03174 15.9121 4.18929 15.2461 4.50439C14.5801 4.81234 13.9033 5.37451 13.2158 6.19092L6.72754 13.9038C6.26921 14.4552 5.82161 14.8455 5.38477 15.0747C4.94792 15.3039 4.43229 15.4185 3.83789 15.4185H1.38867C1.05924 15.4185 0.783529 15.5223 0.561523 15.73C0.34668 15.9305 0.239258 16.1847 0.239258 16.4927ZM0.239258 5.10596C0.239258 5.42106 0.34668 5.67887 0.561523 5.87939C0.783529 6.07992 1.05924 6.18018 1.38867 6.18018H3.77344C4.36784 6.18018 4.89421 6.29476 5.35254 6.52393C5.81087 6.75309 6.26921 7.14339 6.72754 7.69482L13.2803 15.4829C13.932 16.2563 14.5944 16.797 15.2676 17.105C15.9408 17.4129 16.7393 17.5669 17.6631 17.5669H19.8115V20.1558C19.8115 20.4136 19.8831 20.6141 20.0264 20.7573C20.1696 20.9006 20.3737 20.9722 20.6387 20.9722C20.7604 20.9722 20.875 20.9507 20.9824 20.9077C21.0898 20.8719 21.1865 20.8182 21.2725 20.7466L25.4941 17.2339C25.6875 17.062 25.7842 16.8615 25.7842 16.6323C25.7842 16.4032 25.6875 16.2026 25.4941 16.0308L21.2725 12.5073C21.1865 12.4357 21.0898 12.3784 20.9824 12.3354C20.875 12.2925 20.7604 12.271 20.6387 12.271C20.3737 12.271 20.1696 12.3462 20.0264 12.4966C19.8831 12.6398 19.8115 12.8403 19.8115 13.0981V15.4185H17.7168C17.0866 15.4185 16.5423 15.3039 16.084 15.0747C15.6328 14.8455 15.1745 14.4552 14.709 13.9038L8.11328 6.07275C7.47591 5.3208 6.83496 4.79443 6.19043 4.49365C5.55306 4.18571 4.77246 4.03174 3.84863 4.03174H1.38867C1.05924 4.03174 0.783529 4.132 0.561523 4.33252C0.34668 4.53304 0.239258 4.79085 0.239258 5.10596Z"
        fill="currentColor"></path>
</svg>