<svg viewBox="0 0 31 31"
    style="width:100%;height:100%;display:block;fill:var(--color-orange-500);flex-shrink:0;color:var(--color-orange-500)"
    class="waypoint">
    <path
        d="M15.2782 30.6024C23.6224 30.6246 30.493 23.7805 30.5205 15.4364C30.548 7.10655 23.7082 0.225845 15.3784 0.203606C7.03419 0.181329 0.163558 7.02543 0.136099 15.3552C0.108593 23.6994 6.94836 30.5801 15.2782 30.6024ZM13.722 22.6136C13.0746 22.6119 12.572 22.3228 12.1135 21.7605L8.74592 17.7232C8.41636 17.3195 8.28807 16.9595 8.28944 16.5423C8.29238 15.6504 9.01403 14.9473 9.89161 14.9497C10.4095 14.9511 10.8117 15.1535 11.1986 15.615L13.6917 18.7147L19.3318 9.81007C19.7079 9.20683 20.1836 8.90598 20.7447 8.90748C21.6079 8.90978 22.3971 9.5449 22.3941 10.4369C22.393 10.7965 22.2478 11.1846 21.9876 11.5579L15.2786 21.7546C14.9027 22.3003 14.3406 22.6153 13.722 22.6136Z"
        fill="currentColor"></path>
</svg>